<?xml version="1.0" encoding="UTF-8" standalone="no"?>
<!-- Created with Inkscape (http://www.inkscape.org/) -->

<svg
   xmlns:dc="http://purl.org/dc/elements/1.1/"
   xmlns:cc="http://creativecommons.org/ns#"
   xmlns:rdf="http://www.w3.org/1999/02/22-rdf-syntax-ns#"
   xmlns:svg="http://www.w3.org/2000/svg"
   xmlns="http://www.w3.org/2000/svg"
   xmlns:sodipodi="http://sodipodi.sourceforge.net/DTD/sodipodi-0.dtd"
   xmlns:inkscape="http://www.inkscape.org/namespaces/inkscape"
   width="1024"
   height="1024"
   viewBox="0 0 1024 1024"
   id="svg2"
   version="1.1"
   inkscape:version="0.91 r13725"
   sodipodi:docname="formb107.svg">
  <defs
     id="defs4" />
  <sodipodi:namedview
     id="base"
     pagecolor="#ffffff"
     bordercolor="#666666"
     borderopacity="1.0"
     inkscape:pageopacity="0.0"
     inkscape:pageshadow="2"
     inkscape:zoom="0.47442734"
     inkscape:cx="362.34878"
     inkscape:cy="471.66412"
     inkscape:document-units="px"
     inkscape:current-layer="layer1"
     showgrid="false"
     inkscape:showpageshadow="false"
     borderlayer="true"
     units="px"
     inkscape:window-width="1920"
     inkscape:window-height="1139"
     inkscape:window-x="0"
     inkscape:window-y="37"
     inkscape:window-maximized="1" />
  <metadata
     id="metadata7">
    <rdf:RDF>
      <cc:Work
         rdf:about="">
        <dc:format>image/svg+xml</dc:format>
        <dc:type
           rdf:resource="http://purl.org/dc/dcmitype/StillImage" />
        <dc:title></dc:title>
      </cc:Work>
    </rdf:RDF>
  </metadata>
  <g
     inkscape:label="Layer 1"
     inkscape:groupmode="layer"
     id="layer1"
     transform="translate(0,-28.362161)">
    <g
       id="g9331"
       transform="matrix(1.4188816,-0.71281518,0.71281518,1.4188816,-389.84128,90.349272)">
      <g
         style="font-style:normal;font-weight:normal;font-size:100.11798096px;line-height:125%;font-family:sans-serif;letter-spacing:0px;word-spacing:0px;fill:#000000;fill-opacity:1;stroke:none;stroke-width:1px;stroke-linecap:butt;stroke-linejoin:miter;stroke-opacity:1"
         id="text9319">
        <path
           d="m 183.08915,227.24453 9.87492,0 0,29.91807 35.88213,0 0,-29.91807 9.87492,0 0,72.9864 -9.87492,0 0,-34.75776 -35.88213,0 0,34.75776 -9.87492,0 0,-72.9864 z"
           style=""
           id="path9392" />
        <path
           d="m 258.37318,227.24453 14.71461,0 18.62546,49.6679 18.72324,-49.6679 14.7146,0 0,72.9864 -9.63049,0 0,-64.0892 -18.821,50.05899 -9.92381,0 -18.821,-50.05899 0,64.0892 -9.58161,0 0,-72.9864 z"
           style=""
           id="path9394" />
        <path
           d="m 354.67808,235.35956 0,27.4249 12.41697,0 q 6.89289,0 10.65709,-3.56866 3.7642,-3.56866 3.7642,-10.16824 0,-6.55068 -3.7642,-10.11934 -3.7642,-3.56866 -10.65709,-3.56866 l -12.41697,0 z m -9.87492,-8.11503 22.29189,0 q 12.27032,0 18.5277,5.57297 6.30626,5.52409 6.30626,16.23006 0,10.80375 -6.30626,16.32784 -6.25738,5.52409 -18.5277,5.52409 l -12.41697,0 0,29.33144 -9.87492,0 0,-72.9864 z"
           style=""
           id="path9396" />
        <path
           d="m 448.97867,229.63993 0,9.63049 q -5.62186,-2.68872 -10.60821,-4.00863 -4.98634,-1.31992 -9.63049,-1.31992 -8.06614,0 -12.46586,3.12869 -4.35083,3.12869 -4.35083,8.8972 0,4.83969 2.88426,7.33286 2.93314,2.44429 11.04817,3.95975 l 5.96406,1.22214 q 11.04818,2.10209 16.27895,7.43063 5.27966,5.27966 5.27966,14.17686 0,10.60821 -7.13732,16.08341 -7.08843,5.4752 -20.82532,5.4752 -5.18189,0 -11.04817,-1.17325 -5.81741,-1.17326 -12.07478,-3.47089 l 0,-10.16823 q 6.01295,3.37311 11.78146,5.08411 5.76852,1.711 11.34149,1.711 8.45723,0 13.05249,-3.32423 4.59526,-3.32423 4.59526,-9.48383 0,-5.37743 -3.32423,-8.40835 -3.27534,-3.03091 -10.80374,-4.54637 l -6.01295,-1.17326 q -11.04818,-2.19985 -15.98563,-6.89288 -4.93746,-4.69303 -4.93746,-13.0525 0,-9.67937 6.79511,-15.25234 6.84401,-5.57298 18.82101,-5.57298 5.133,0 10.46155,0.92883 5.32854,0.92883 10.90152,2.78649 z"
           style=""
           id="path9398" />
      </g>
      <g
         style="font-style:normal;font-weight:normal;font-size:262.63381958px;line-height:125%;font-family:sans-serif;letter-spacing:0px;word-spacing:0px;fill:#000000;fill-opacity:1;stroke:none;stroke-width:1px;stroke-linecap:butt;stroke-linejoin:miter;stroke-opacity:1"
         id="text9323">
        <path
           d="m 206.88566,421.32969 0,70.14683 41.54949,0 q 20.90299,0 30.90564,-8.59203 10.1309,-8.72026 10.1309,-26.5455 0,-17.95349 -10.1309,-26.41727 -10.00265,-8.59203 -30.90564,-8.59203 l -41.54949,0 z m 0,-78.73885 0,57.70763 38.34351,0 q 18.9794,0 28.21262,-7.05315 9.36146,-7.1814 9.36146,-21.80066 0,-14.49103 -9.36146,-21.67242 -9.23322,-7.1814 -28.21262,-7.1814 l -38.34351,0 z m -25.90431,-21.2877 66.17141,0 q 29.62325,0 45.65315,12.31096 16.02989,12.31096 16.02989,35.00929 0,17.56877 -8.20731,27.95614 -8.2073,10.38738 -24.10896,12.95216 19.10764,4.10365 29.62325,17.18405 10.64385,12.95215 10.64385,32.44451 0,25.64783 -17.44053,39.6259 -17.44052,13.97807 -49.62856,13.97807 l -68.73619,0 0,-191.46108 z"
           style=""
           id="path9401" />
      </g>
      <g
         transform="matrix(0.03525084,0.9993785,-0.9993785,0.03525084,0,0)"
         inkscape:transform-center-x="99.512233"
         inkscape:transform-center-y="-83.799764"
         style="font-style:normal;font-weight:normal;font-size:99.39225006px;line-height:125%;font-family:sans-serif;letter-spacing:0px;word-spacing:0px;fill:#000000;fill-opacity:1;stroke:none;stroke-width:1px;stroke-linecap:butt;stroke-linejoin:miter;stroke-opacity:1"
         id="text9327">
        <path
           d="m 351.7761,-351.16336 16.01535,0 0,-55.27723 -17.42276,3.49426 0,-8.92977 17.3257,-3.49426 9.80333,0 0,64.207 16.01536,0 0,8.25034 -41.73698,0 0,-8.25034 z"
           style=""
           id="path9404" />
        <path
           d="m 434.32796,-408.91569 q -7.5709,0 -11.40487,7.47383 -3.78545,7.4253 -3.78545,22.37296 0,14.89913 3.78545,22.37297 3.83397,7.4253 11.40487,7.4253 7.61942,0 11.40487,-7.4253 3.83398,-7.47384 3.83398,-22.37297 0,-14.94766 -3.83398,-22.37296 -3.78545,-7.47383 -11.40487,-7.47383 z m 0,-7.76502 q 12.18137,0 18.58751,9.65774 6.45468,9.60921 6.45468,27.95407 0,18.29633 -6.45468,27.95407 -6.40614,9.60921 -18.58751,9.60921 -12.18138,0 -18.63605,-9.60921 -6.40614,-9.65774 -6.40614,-27.95407 0,-18.34486 6.40614,-27.95407 6.45467,-9.65774 18.63605,-9.65774 z"
           style=""
           id="path9406" />
        <path
           d="m 474.17221,-415.37036 46.59012,0 0,4.17369 -26.304,68.28365 -10.24012,0 24.751,-64.20701 -34.797,0 0,-8.25033 z"
           style=""
           id="path9408" />
      </g>
    </g>
    <g
       id="g9357"
       transform="matrix(1.2521259,-0.60800173,0.63247238,1.2036806,-590.74266,12.291794)">
      <rect
         y="776.23981"
         x="330.92529"
         height="14.75463"
         width="208.67262"
         id="rect9339"
         style="fill:#000000;fill-opacity:1;stroke:#000000;stroke-width:0;stroke-miterlimit:4;stroke-dasharray:none;stroke-opacity:1" />
      <rect
         style="fill:#000000;fill-opacity:1;stroke:#000000;stroke-width:0;stroke-miterlimit:4;stroke-dasharray:none;stroke-opacity:1"
         id="rect9341"
         width="208.67262"
         height="14.75463"
         x="383.62039"
         y="805.74908" />
      <rect
         y="837.36615"
         x="330.92529"
         height="14.75463"
         width="208.67262"
         id="rect9343"
         style="fill:#000000;fill-opacity:1;stroke:#000000;stroke-width:0;stroke-miterlimit:4;stroke-dasharray:none;stroke-opacity:1" />
      <rect
         style="fill:#000000;fill-opacity:1;stroke:#000000;stroke-width:0;stroke-miterlimit:4;stroke-dasharray:none;stroke-opacity:1"
         id="rect9345"
         width="46.371693"
         height="14.754636"
         x="644.98816"
         y="774.13202" />
      <rect
         y="805.74908"
         x="328.8175"
         height="14.754636"
         width="46.371693"
         id="rect9347"
         style="fill:#000000;fill-opacity:1;stroke:#000000;stroke-width:0;stroke-miterlimit:4;stroke-dasharray:none;stroke-opacity:1" />
      <rect
         style="fill:#000000;fill-opacity:1;stroke:#000000;stroke-width:0;stroke-miterlimit:4;stroke-dasharray:none;stroke-opacity:1"
         id="rect9349"
         width="46.371693"
         height="14.754636"
         x="554.35254"
         y="774.13202" />
      <rect
         y="837.36615"
         x="566.99939"
         height="14.754636"
         width="46.371693"
         id="rect9351"
         style="fill:#000000;fill-opacity:1;stroke:#000000;stroke-width:0;stroke-miterlimit:4;stroke-dasharray:none;stroke-opacity:1" />
      <rect
         style="fill:#000000;fill-opacity:1;stroke:#000000;stroke-width:0;stroke-miterlimit:4;stroke-dasharray:none;stroke-opacity:1"
         id="rect9353"
         width="46.371693"
         height="14.754636"
         x="611.26331"
         y="805.74908" />
      <rect
         y="835.25836"
         x="630.23352"
         height="14.754636"
         width="46.371693"
         id="rect9355"
         style="fill:#000000;fill-opacity:1;stroke:#000000;stroke-width:0;stroke-miterlimit:4;stroke-dasharray:none;stroke-opacity:1" />
    </g>
    <g
       transform="matrix(-1.2521259,0.60800173,-0.63247238,-1.2036806,1796.7539,1488.6503)"
       id="g9368">
      <rect
         style="fill:#000000;fill-opacity:1;stroke:#000000;stroke-width:0;stroke-miterlimit:4;stroke-dasharray:none;stroke-opacity:1"
         id="rect9370"
         width="208.67262"
         height="14.75463"
         x="330.92529"
         y="776.23981" />
      <rect
         y="805.74908"
         x="383.62039"
         height="14.75463"
         width="208.67262"
         id="rect9372"
         style="fill:#000000;fill-opacity:1;stroke:#000000;stroke-width:0;stroke-miterlimit:4;stroke-dasharray:none;stroke-opacity:1" />
      <rect
         style="fill:#000000;fill-opacity:1;stroke:#000000;stroke-width:0;stroke-miterlimit:4;stroke-dasharray:none;stroke-opacity:1"
         id="rect9374"
         width="208.67262"
         height="14.75463"
         x="330.92529"
         y="837.36615" />
      <rect
         y="774.13202"
         x="644.98816"
         height="14.754636"
         width="46.371693"
         id="rect9376"
         style="fill:#000000;fill-opacity:1;stroke:#000000;stroke-width:0;stroke-miterlimit:4;stroke-dasharray:none;stroke-opacity:1" />
      <rect
         style="fill:#000000;fill-opacity:1;stroke:#000000;stroke-width:0;stroke-miterlimit:4;stroke-dasharray:none;stroke-opacity:1"
         id="rect9378"
         width="46.371693"
         height="14.754636"
         x="328.8175"
         y="805.74908" />
      <rect
         y="774.13202"
         x="554.35254"
         height="14.754636"
         width="46.371693"
         id="rect9380"
         style="fill:#000000;fill-opacity:1;stroke:#000000;stroke-width:0;stroke-miterlimit:4;stroke-dasharray:none;stroke-opacity:1" />
      <rect
         style="fill:#000000;fill-opacity:1;stroke:#000000;stroke-width:0;stroke-miterlimit:4;stroke-dasharray:none;stroke-opacity:1"
         id="rect9382"
         width="46.371693"
         height="14.754636"
         x="566.99939"
         y="837.36615" />
      <rect
         y="805.74908"
         x="611.26331"
         height="14.754636"
         width="46.371693"
         id="rect9384"
         style="fill:#000000;fill-opacity:1;stroke:#000000;stroke-width:0;stroke-miterlimit:4;stroke-dasharray:none;stroke-opacity:1" />
      <rect
         style="fill:#000000;fill-opacity:1;stroke:#000000;stroke-width:0;stroke-miterlimit:4;stroke-dasharray:none;stroke-opacity:1"
         id="rect9386"
         width="46.371693"
         height="14.754636"
         x="630.23352"
         y="835.25836" />
    </g>
    <path
       style="fill:none;fill-opacity:1;stroke:#000000;stroke-width:8;stroke-miterlimit:4;stroke-dasharray:none;stroke-opacity:1"
       d="M 6.6433121e-8,219.77945 415.23744,25.86145 695.04847,168.6652 l 332.50613,595.98168 -0.527,115.4023 -350.42242,172.31302 -417.34525,0 L 1.0539057,577.05231 Z"
       id="rect9388"
       inkscape:connector-curvature="0"
       sodipodi:nodetypes="ccccccccc" />
  </g>
</svg>
