<?xml version="1.0" encoding="UTF-8" standalone="no"?>
<!-- Created with Inkscape (http://www.inkscape.org/) -->

<svg
   xmlns:dc="http://purl.org/dc/elements/1.1/"
   xmlns:cc="http://creativecommons.org/ns#"
   xmlns:rdf="http://www.w3.org/1999/02/22-rdf-syntax-ns#"
   xmlns:svg="http://www.w3.org/2000/svg"
   xmlns="http://www.w3.org/2000/svg"
   xmlns:sodipodi="http://sodipodi.sourceforge.net/DTD/sodipodi-0.dtd"
   xmlns:inkscape="http://www.inkscape.org/namespaces/inkscape"
   width="1024"
   height="1024"
   viewBox="0 0 1024 1024"
   id="svg2"
   version="1.1"
   inkscape:version="0.91 r13725"
   sodipodi:docname="keys.svg">
  <defs
     id="defs4" />
  <sodipodi:namedview
     id="base"
     pagecolor="#ffffff"
     bordercolor="#666666"
     borderopacity="1.0"
     inkscape:pageopacity="0.0"
     inkscape:pageshadow="2"
     inkscape:zoom="0.11860683"
     inkscape:cx="518.3263"
     inkscape:cy="808.91281"
     inkscape:document-units="px"
     inkscape:current-layer="layer1"
     showgrid="false"
     inkscape:showpageshadow="false"
     borderlayer="true"
     units="px"
     inkscape:window-width="1920"
     inkscape:window-height="1139"
     inkscape:window-x="0"
     inkscape:window-y="37"
     inkscape:window-maximized="1" />
  <metadata
     id="metadata7">
    <rdf:RDF>
      <cc:Work
         rdf:about="">
        <dc:format>image/svg+xml</dc:format>
        <dc:type
           rdf:resource="http://purl.org/dc/dcmitype/StillImage" />
        <dc:title></dc:title>
      </cc:Work>
    </rdf:RDF>
  </metadata>
  <g
     inkscape:label="Layer 1"
     inkscape:groupmode="layer"
     id="layer1"
     transform="translate(0,-28.362161)">
    <ellipse
       style="fill:none;fill-opacity:1;stroke:#000000;stroke-width:24;stroke-miterlimit:4;stroke-dasharray:none;stroke-opacity:1"
       id="path9265"
       cx="576.4845"
       cy="158.65314"
       rx="36.886578"
       ry="37.940479" />
    <ellipse
       ry="19.280655"
       rx="18.105274"
       cy="443.4686"
       cx="874.11407"
       id="ellipse8142"
       style="fill:#ffffff;stroke:none;stroke-width:9.03653431;stroke-miterlimit:4;stroke-dasharray:none;stroke-opacity:1"
       inkscape:transform-center-x="-15.796911"
       inkscape:transform-center-y="-16.111842" />
    <rect
       style="fill:#000000;fill-opacity:1;stroke:none;stroke-width:400;stroke-miterlimit:4;stroke-dasharray:none;stroke-opacity:1"
       id="rect9248"
       width="38.994377"
       height="226.58896"
       x="700.22449"
       y="-359.9035"
       transform="matrix(0.80901699,0.58778525,-0.58778525,0.80901699,0,0)" />
    <ellipse
       style="fill:none;fill-opacity:1;stroke:#000000;stroke-width:83.02796173;stroke-miterlimit:4;stroke-dasharray:none;stroke-opacity:1"
       id="path9250"
       cx="861.4715"
       cy="-314.58572"
       rx="19.370934"
       ry="8.831913"
       transform="matrix(0.80901699,0.58778525,-0.58778525,0.80901699,0,0)" />
    <ellipse
       ry="13.452714"
       rx="23.464783"
       cy="-201.29126"
       cx="862.52533"
       id="ellipse9252"
       style="fill:none;fill-opacity:1;stroke:#000000;stroke-width:112.78073883;stroke-miterlimit:4;stroke-dasharray:none;stroke-opacity:1"
       transform="matrix(0.80901699,0.58778525,-0.58778525,0.80901699,0,0)" />
    <path
       style="fill:none;fill-opacity:1;stroke:#000000;stroke-width:48;stroke-miterlimit:4;stroke-dasharray:none;stroke-opacity:1"
       d="m 607.71463,51.995051 393.78127,2.107805 0,381.919734 C 830.31703,782.97294 636.27083,487.24132 563.45073,208.37972 c 0,0 -193.91799,-14.9582 -143.33069,-151.965486 0,0 37.94048,1.90423 187.59459,-4.419183 z"
       id="rect9254"
       inkscape:connector-curvature="0"
       sodipodi:nodetypes="cccccc" />
    <g
       id="g9293"
       transform="matrix(0.90438772,-0.42671166,0.42671166,0.90438772,-221.51219,172.15808)">
      <ellipse
         ry="19.280655"
         rx="18.105274"
         cy="677.88953"
         cx="375.78528"
         id="ellipse8138"
         style="fill:#ffffff;stroke:none;stroke-width:9.03653431;stroke-miterlimit:4;stroke-dasharray:none;stroke-opacity:1" />
      <rect
         transform="matrix(0.70315942,0.71103223,-0.67794356,0.73511395,0,0)"
         y="-34.982857"
         x="665.12384"
         height="691.19666"
         width="27.103136"
         id="rect9256"
         style="fill:#000000;fill-opacity:1;stroke:#000000;stroke-width:24.01270676;stroke-miterlimit:4;stroke-dasharray:none;stroke-opacity:1" />
      <ellipse
         ry="103.4321"
         rx="106.33206"
         cy="381.02646"
         cx="568.8454"
         id="path9258"
         style="fill:none;fill-opacity:1;stroke:#000000;stroke-width:73.37722015;stroke-miterlimit:4;stroke-dasharray:none;stroke-opacity:1" />
      <rect
         transform="matrix(0.67225704,-0.74031782,0.74031782,0.67225704,0,0)"
         y="719.82874"
         x="-625.18958"
         height="50.587303"
         width="16.862434"
         id="rect9260"
         style="fill:#000000;fill-opacity:1;stroke:#000000;stroke-width:80;stroke-miterlimit:4;stroke-dasharray:none;stroke-opacity:1" />
      <rect
         style="fill:#000000;fill-opacity:1;stroke:#000000;stroke-width:80;stroke-miterlimit:4;stroke-dasharray:none;stroke-opacity:1"
         id="rect9262"
         width="16.862434"
         height="50.587303"
         x="-498.2901"
         y="718.48218"
         transform="matrix(0.67225704,-0.74031782,0.74031782,0.67225704,0,0)" />
    </g>
    <g
       id="g9277"
       transform="matrix(0.76893018,-1.2614654,1.2065362,0.77301816,432.38219,-95.537812)"
       inkscape:transform-center-x="0.33289987"
       inkscape:transform-center-y="46.590358">
      <ellipse
         style="fill:#ffffff;stroke:none;stroke-width:9.03653431;stroke-miterlimit:4;stroke-dasharray:none;stroke-opacity:1"
         id="ellipse9267"
         cx="-369.00626"
         cy="436.53833"
         rx="8.1880512"
         ry="10.375382" />
      <rect
         style="fill:#000000;fill-opacity:1;stroke:#000000;stroke-width:11.98237133;stroke-miterlimit:4;stroke-dasharray:none;stroke-opacity:1"
         id="rect9269"
         width="13.484341"
         height="345.93524"
         x="-60.383907"
         y="454.00388"
         transform="matrix(0.63917399,0.76906216,-0.61259837,0.79039435,0,0)" />
      <ellipse
         style="fill:none;fill-opacity:1;stroke:#000000;stroke-width:36.19846344;stroke-miterlimit:4;stroke-dasharray:none;stroke-opacity:1"
         id="ellipse9271"
         cx="-281.69547"
         cy="276.78918"
         rx="48.088329"
         ry="55.65929" />
      <rect
         style="fill:#000000;fill-opacity:1;stroke:#000000;stroke-width:39.76075745;stroke-miterlimit:4;stroke-dasharray:none;stroke-opacity:1"
         id="rect9273"
         width="8.4504299"
         height="24.935171"
         x="-764.2597"
         y="-35.880516"
         transform="matrix(0.60666969,-0.79495401,0.67923934,0.73391684,0,0)" />
      <rect
         transform="matrix(0.60666969,-0.79495401,0.67923934,0.73391684,0,0)"
         y="-36.544254"
         x="-700.66541"
         height="24.935171"
         width="8.4504299"
         id="rect9275"
         style="fill:#000000;fill-opacity:1;stroke:#000000;stroke-width:39.76075745;stroke-miterlimit:4;stroke-dasharray:none;stroke-opacity:1" />
    </g>
    <g
       id="g9289"
       transform="matrix(0.48825587,0,0,0.48825587,885.43854,541.64816)">
      <ellipse
         ry="139.02861"
         rx="145.35202"
         cy="-827.79932"
         cx="-1106.5973"
         id="path9284"
         style="fill:none;fill-opacity:1;stroke:#000000;stroke-width:134.23861694;stroke-miterlimit:4;stroke-dasharray:none;stroke-opacity:1" />
      <path
         sodipodi:nodetypes="cccccccccc"
         inkscape:connector-curvature="0"
         id="rect9286"
         d="m -843.57227,-1487.7435 479.90915,0 c 0,0 29.2569,88.5636 0,225.5566 -65.70145,-30.0984 -261.89491,-172.2914 -246.32915,-8.2729 20.44618,-104.2418 -67.71144,-67.1044 -67.71144,-67.1044 -24.01597,-41.8385 17.65192,125.8042 -51.09058,80.7879 -68.4541,26.5268 1.89389,-85.9098 -51.73949,-80.1841 -74.70444,-45.0426 -63.03849,74.7735 -63.03849,74.7735 -158.02733,-9.6386 -193.79893,-122.5744 -193.79893,-122.5744 0,0 -0.072,-130.6641 193.79893,-102.9822 z"
         inkscape:transform-center-y="-101.20487"
         inkscape:transform-center-x="100.35485"
         style="fill:#000000;fill-opacity:1;stroke:#000000;stroke-width:27.32180023;stroke-miterlimit:4;stroke-dasharray:none;stroke-opacity:1"
         transform="matrix(0.70398628,-0.71021357,0.70425057,0.7099515,0,0)" />
    </g>
  </g>
</svg>
