<?xml version="1.0" encoding="UTF-8" standalone="no"?>
<!-- Created with Inkscape (http://www.inkscape.org/) -->

<svg
   xmlns:dc="http://purl.org/dc/elements/1.1/"
   xmlns:cc="http://creativecommons.org/ns#"
   xmlns:rdf="http://www.w3.org/1999/02/22-rdf-syntax-ns#"
   xmlns:svg="http://www.w3.org/2000/svg"
   xmlns="http://www.w3.org/2000/svg"
   xmlns:sodipodi="http://sodipodi.sourceforge.net/DTD/sodipodi-0.dtd"
   xmlns:inkscape="http://www.inkscape.org/namespaces/inkscape"
   width="1024"
   height="1024"
   viewBox="0 0 1024 1024"
   id="svg2"
   version="1.1"
   inkscape:version="0.91 r13725"
   sodipodi:docname="keys.svg">
  <defs
     id="defs4" />
  <sodipodi:namedview
     id="base"
     pagecolor="#ffffff"
     bordercolor="#666666"
     borderopacity="1.0"
     inkscape:pageopacity="0.0"
     inkscape:pageshadow="2"
     inkscape:zoom="0.47442732"
     inkscape:cx="362.34877"
     inkscape:cy="471.6641"
     inkscape:document-units="px"
     inkscape:current-layer="layer1"
     showgrid="false"
     inkscape:showpageshadow="false"
     borderlayer="true"
     units="px"
     inkscape:window-width="1920"
     inkscape:window-height="1139"
     inkscape:window-x="0"
     inkscape:window-y="37"
     inkscape:window-maximized="1" />
  <metadata
     id="metadata7">
    <rdf:RDF>
      <cc:Work
         rdf:about="">
        <dc:format>image/svg+xml</dc:format>
        <dc:type
           rdf:resource="http://purl.org/dc/dcmitype/StillImage" />
        <dc:title />
      </cc:Work>
    </rdf:RDF>
  </metadata>
  <g
     inkscape:label="Layer 1"
     inkscape:groupmode="layer"
     id="layer1"
     transform="translate(0,-28.362161)">
    <path
       style="fill:none;fill-opacity:1;stroke:#000000;stroke-width:24;stroke-miterlimit:4;stroke-dasharray:none;stroke-opacity:1"
       d="m 613.37107,158.65314 a 36.886578,37.940479 0 0 1 -36.88657,37.94048 36.886578,37.940479 0 0 1 -36.88658,-37.94048 36.886578,37.940479 0 0 1 36.88658,-37.94048 36.886578,37.940479 0 0 1 36.88657,37.94048 z"
       id="path9265" />
    <path
       style="fill:none;fill-opacity:1;stroke:#000000;stroke-width:48;stroke-miterlimit:4;stroke-dasharray:none;stroke-opacity:1"
       d="m 607.71463,51.995051 393.78127,2.107805 0,381.919734 C 830.31703,782.97294 636.27083,487.24132 563.45073,208.37972 c 0,0 -193.91799,-14.9582 -143.33069,-151.965486 0,0 37.94048,1.90423 187.59459,-4.419183 z"
       id="rect9254"
       inkscape:connector-curvature="0"
       sodipodi:nodetypes="cccccc" />
    <rect
       style="fill:#000000;fill-opacity:1;stroke:#000000;stroke-width:24.01270676;stroke-miterlimit:4;stroke-dasharray:none;stroke-opacity:1"
       id="rect9256"
       width="27.103136"
       height="691.19666"
       x="505.15799"
       y="202.96214"
       transform="matrix(0.93933449,0.34300249,-0.29944214,0.95411446,0,0)" />
    <ellipse
       style="fill:none;fill-opacity:1;stroke:#000000;stroke-width:73.37722015;stroke-miterlimit:4;stroke-dasharray:none;stroke-opacity:1"
       id="path9258"
       cx="295.05063"
       cy="442.20227"
       rx="106.33206"
       ry="103.4321"
       transform="matrix(0.90438773,-0.42671166,0.42671166,0.90438773,0,0)" />
    <rect
       style="fill:#000000;fill-opacity:1;stroke:#000000;stroke-width:80;stroke-miterlimit:4;stroke-dasharray:none;stroke-opacity:1"
       id="rect9260"
       width="16.862434"
       height="50.587303"
       x="-854.53955"
       y="558.25946"
       transform="matrix(0.29207877,-0.95639427,0.95639427,0.29207877,0,0)" />
    <rect
       transform="matrix(0.29207877,-0.95639427,0.95639427,0.29207877,0,0)"
       y="556.9129"
       x="-727.64008"
       height="50.587303"
       width="16.862434"
       id="rect9262"
       style="fill:#000000;fill-opacity:1;stroke:#000000;stroke-width:80;stroke-miterlimit:4;stroke-dasharray:none;stroke-opacity:1" />
    <rect
       transform="matrix(0.98904957,-0.14758371,0.32930327,0.94422421,0,0)"
       y="634.11676"
       x="360.90933"
       height="506.96817"
       width="19.35133"
       id="rect9269"
       style="fill:#000000;fill-opacity:1;stroke:#000000;stroke-width:17.37705803;stroke-miterlimit:4;stroke-dasharray:none;stroke-opacity:1" />
    <ellipse
       ry="79.755836"
       rx="71.04306"
       cy="716.1734"
       cx="-102.38336"
       id="ellipse9271"
       style="fill:none;fill-opacity:1;stroke:#000000;stroke-width:52.66759872;stroke-miterlimit:4;stroke-dasharray:none;stroke-opacity:1"
       transform="matrix(0.52048108,-0.8538732,0.84200673,0.53946702,0,0)" />
    <rect
       transform="matrix(-0.33625531,-0.94177087,0.97950267,-0.20143119,0,0)"
       y="392.10928"
       x="-1113.1832"
       height="35.83794"
       width="12.380888"
       id="rect9273"
       style="fill:#000000;fill-opacity:1;stroke:#000000;stroke-width:57.69743347;stroke-miterlimit:4;stroke-dasharray:none;stroke-opacity:1" />
    <rect
       style="fill:#000000;fill-opacity:1;stroke:#000000;stroke-width:57.69743347;stroke-miterlimit:4;stroke-dasharray:none;stroke-opacity:1"
       id="rect9275"
       width="12.380888"
       height="35.83794"
       x="-1020.0099"
       y="391.15533"
       transform="matrix(-0.33625531,-0.94177087,0.97950267,-0.20143119,0,0)" />
    <ellipse
       style="fill:none;fill-opacity:1;stroke:#000000;stroke-width:65.54279327;stroke-miterlimit:4;stroke-dasharray:none;stroke-opacity:1"
       id="path9284"
       cx="345.13593"
       cy="137.47029"
       rx="70.968979"
       ry="67.881538" />
    <path
       style="fill:#000000;fill-opacity:1;stroke:#000000;stroke-width:13.33979225;stroke-miterlimit:4;stroke-dasharray:none;stroke-opacity:1"
       inkscape:transform-center-x="100.35485"
       inkscape:transform-center-y="-101.20487"
       d="M 83.914046,318.46187 248.87103,152.04573 c 0,0 40.50933,20.55421 77.55864,78.18648 -32.93273,12.34978 -149.26311,31.09349 -87.51427,82.55086 -28.81613,-43.22421 -46.34829,0.21909 -46.34829,0.21909 -22.64125,-6.17489 49.32575,37.48743 10.21815,45.72063 -14.40806,32.93274 -28.88949,-30.43634 -45.35584,-9.85337 -41.16591,10.29148 4.04327,47.77894 4.04327,47.77894 -57.63229,51.45739 -108.761375,24.71393 -108.761375,24.71393 0,0 -44.9541828,-45.26818 31.202731,-102.90042 z"
       id="rect9286"
       inkscape:connector-curvature="0"
       sodipodi:nodetypes="cccccccccc" />
    <g
       transform="matrix(0.03749616,0.99929677,-0.99929677,0.03749616,0,0)"
       style="font-style:normal;font-variant:normal;font-weight:normal;font-stretch:normal;font-size:160.08140564px;line-height:125%;font-family:Quinquefoliolate;-inkscape-font-specification:'Quinquefoliolate, Normal';text-align:start;letter-spacing:0px;word-spacing:0px;writing-mode:lr-tb;text-anchor:start;fill:#000000;fill-opacity:1;stroke:none;stroke-width:1px;stroke-linecap:butt;stroke-linejoin:miter;stroke-opacity:1"
       id="text4763">
      <path
         d="m 203.47057,-923.92729 q 0,5.23703 -2.73577,11.02123 -1.40697,2.89209 -5.86236,9.92692 -3.9864,6.25318 -5.47153,10.00509 l 2.50127,9.84875 q 2.81393,-2.03228 5.47154,-9.14527 1.71962,-4.61172 2.89209,-10.08325 0.0782,0.15633 1.25064,2.18861 0.70348,1.25064 0.70348,2.50127 0,2.11045 -1.3288,6.25318 -1.64146,5.15887 -1.87595,6.40951 l 0,11.72471 q 0,0.39083 -0.62532,0.39083 -0.54716,0 -2.03229,-0.39083 -1.48513,-0.39082 -2.03228,-0.39082 -0.54715,0 -0.54715,0.39082 0,1.09431 2.73576,4.53356 2.81393,3.36108 2.81393,4.37722 0,5.86236 0.85982,12.97535 0.85981,7.03483 1.71962,14.38232 0.93798,7.34748 0.93798,12.50636 0,1.25063 -1.95412,2.57943 -1.87595,1.3288 -1.87595,2.11045 0,1.17247 1.40696,3.9864 2.11045,4.14273 2.18861,4.45539 l -26.10702,0.46899 q 1.40696,-3.9864 2.03228,-5.78419 1.17247,-3.12659 3.12659,-5.47153 5.15888,3.28292 8.05097,5.00254 2.8921,1.71963 4.06457,1.71963 1.17247,0 1.64146,-3.36109 0.46899,-3.36108 0.46899,-8.2073 0,-0.93797 -0.0782,-3.7519 -0.0782,-2.81393 0,-2.8921 l 0,-9.61426 q -2.03228,2.03228 -3.59558,4.92438 -2.34494,4.22089 -2.81393,4.92437 -5.94052,3.75191 -9.45793,6.25318 -3.43925,2.50128 -3.43925,5.00255 0,-13.13168 0.54715,-19.38486 0.62532,-6.25318 2.03228,-10.16142 0.46899,-1.0943 1.40697,-1.0943 1.64146,0 4.2209,3.04842 2.57943,2.97026 3.36108,5.08071 0.15633,-0.93798 0.39082,-1.95412 0.2345,-1.0943 0.2345,-1.79779 0,-2.50127 -3.83007,-6.25318 -3.83008,-3.7519 -3.83008,-5.94052 0,-1.87595 4.92438,-6.80033 5.31521,-5.3152 5.94052,-7.42565 l -1.25063,-2.18862 q -4.61172,2.65761 -5.39337,3.12659 -3.20475,1.79779 -5.5497,2.97027 -2.81393,-1.87596 -3.83007,-6.48768 -0.62532,-2.97026 -0.62532,-8.51996 0,-5.3152 5.94052,-11.41205 4.29906,-4.06457 6.25318,-5.94052 -4.37722,-1.87595 -8.36363,-2.81393 0,6.25318 -4.68988,10.6304 -3.51741,3.28292 -11.25572,6.56584 -6.80034,2.8921 -13.60067,5.78419 l 5.5497,-5.15887 q -0.78165,-0.0782 -1.5633,-0.15633 -2.34494,0.46899 -2.73576,0.46899 -0.62532,0 -0.62532,-0.31266 0,-2.03228 -1.79779,-4.76805 -0.54715,-0.85981 -2.03228,-2.73576 1.3288,-0.39083 2.03228,-0.54716 0.70348,-0.23449 1.01614,-0.23449 0.39082,0 0.85981,0 0.46899,0 1.87596,-0.15633 -0.70349,-1.48513 -1.5633,-2.57944 -0.85981,-1.09431 -2.34494,-2.57944 l 8.36363,-3.28291 q 0.31266,0.31265 1.40696,0.39082 1.17247,0.0782 1.17247,0.54715 0,0.31266 -0.31266,0.85981 -0.31265,0.54716 -0.31265,1.01615 l 8.36362,-3.75191 1.71963,2.81393 q 4.06457,-6.25318 6.644,-9.92692 2.6576,-3.67375 4.45539,-3.67375 0.62532,0 1.3288,0.46899 0.70349,0.46899 1.25064,0.46899 4.53356,0 8.91078,-5.15887 4.37723,-5.15888 7.81648,-5.15888 0.62531,0 1.56329,0.2345 0.93798,0.23449 1.64146,0.23449 0.62532,0.93798 1.25064,1.87596 z"
         style=""
         id="path4768" />
      <path
         d="m 355.97,-835.67929 q 0,8.98894 -8.59812,15.00763 -7.26933,5.08071 -20.24467,7.66014 -11.02123,2.18862 -23.52759,2.18862 -3.83008,0 -7.113,-0.54716 -3.28292,-0.62531 -6.644,-1.79779 4.14273,-1.25063 5.47153,-1.64146 2.18862,-0.70348 4.14273,-2.50127 l -17.97789,0 q -10.55224,0 -17.19624,-7.19115 -5.94052,-6.48768 -5.94052,-14.92947 0,-1.01614 0.93797,-5.15887 0.93798,-4.14274 0.93798,-5.62787 0,-4.22089 6.95666,-11.80287 6.95667,-7.58198 12.35003,-9.7706 1.5633,-0.54715 4.61172,-0.54715 2.34495,0 6.09685,0.31266 3.75191,0.23449 4.06457,0.23449 l 2.57944,-0.46899 q -11.56839,-2.57943 -23.13677,-5.15887 -2.42311,-1.01614 -5.78419,-7.03483 -4.37723,-7.89464 -4.45539,-7.9728 1.25064,-0.46899 2.50127,-0.93798 1.01614,0 3.12659,1.17247 0.70348,0.39083 2.6576,1.64146 0.0782,-0.31266 0.0782,-0.62531 0,-0.31266 0,-0.46899 0,-3.59558 -5.15888,-5.70603 -5.15887,-2.11045 -5.15887,-5.39337 0,-2.4231 5.70603,-8.91078 6.17501,-7.03483 9.69243,-7.03483 0.62531,0 0.70348,0.93798 0.0782,0.93798 0.62532,0.93798 2.6576,0 4.06456,-3.43925 1.01615,-2.42311 1.01615,-4.53356 l 21.26081,-1.87595 q 1.0943,1.17247 1.56329,1.87595 1.64146,2.18862 1.64146,3.28292 0,0.2345 0.70349,0.2345 0.70348,0 2.34494,-0.15633 1.64146,-0.2345 1.87595,-0.2345 0.54715,0 0.85981,0.15633 0.62532,-1.87595 1.3288,-3.75191 1.17248,-2.34494 3.75191,-2.34494 4.45539,0 4.68989,2.03229 0.23449,1.95411 0.46899,3.59557 l 1.3288,9.84876 q 0.54715,0 2.26677,-5.15887 1.71963,-5.15887 2.18862,-5.15887 6.09685,0 13.75699,7.81647 7.42565,7.58198 7.42565,12.81902 0,1.09431 -0.54715,2.34494 -0.46899,1.17247 -0.70348,1.87596 l -1.25064,1.87595 q -3.90824,-6.33134 -5.94052,-9.30161 -3.67374,-5.3152 -9.5361,-7.11299 0.2345,2.03229 0.2345,3.36109 0,1.0943 -0.2345,2.73576 l -3.83007,0 q -2.42311,-1.79779 -4.68989,-2.81393 -3.04842,-1.40696 -5.62786,-1.40696 -0.46899,0 -0.46899,0.54715 0,1.17247 -0.15633,1.3288 -6.25318,-4.68988 -16.64909,-4.68988 -1.95412,0 -3.9864,1.01614 -4.53355,2.26678 -7.58198,2.26678 2.57944,-3.67375 3.36108,-4.37723 2.42311,-2.18861 6.25318,-2.18861 1.09431,0 2.97026,-1.5633 0.31266,-0.23449 0.85982,-0.78165 -0.78165,0 -2.6576,-0.23449 -1.87596,-0.23449 -2.50128,-0.23449 -7.89464,0 -12.50636,10.16141 -3.04842,7.58198 -6.09685,15.16396 1.71963,-0.70348 2.73577,-1.17247 3.28292,-1.48513 5.00254,-2.57943 1.40697,1.17247 2.34495,2.6576 1.3288,2.4231 2.73576,4.84621 1.5633,2.18861 2.8921,2.42311 1.3288,0.23449 2.89209,1.3288 2.42311,1.79779 9.30161,8.67629 3.20475,3.20475 6.17501,5.39336 -0.85981,-2.03228 -1.25063,-3.20475 -1.3288,-3.67374 -1.3288,-5.23704 l 5.15887,-3.75191 q 2.97026,-3.12659 5.94052,-6.25318 3.04843,-3.67374 3.04843,-7.34748 0,-1.01614 -0.0782,-1.95412 0,-1.01614 0,-1.87596 0,-1.0943 0.0782,-1.79778 0.39082,0.15632 4.06456,5.70602 1.17247,1.79779 3.59558,5.5497 0.78165,0 1.01614,-0.85981 0.31266,-0.93798 0.31266,-2.73577 0,-0.70348 -0.0782,-2.26678 -0.0782,-1.64146 -0.0782,-2.34494 0,-2.34494 0.78165,-3.04842 3.83007,2.81393 6.48768,7.11299 2.73576,4.29906 3.12658,8.36363 l 2.57944,-0.93798 1.95412,1.87595 q -5.3152,5.00255 -10.63041,9.92693 -6.17501,4.68988 -14.46047,5.54969 -0.31266,1.40697 -4.92438,2.57944 -4.61172,1.09431 -5.31521,2.57944 l 11.56839,2.34494 q 3.51741,-3.04843 5.39336,-4.45539 3.43925,-2.57944 6.80034,-2.57944 1.64146,0 2.97026,0.93798 0.39082,0.23449 3.43925,3.75191 4.53355,4.92438 6.80033,8.91078 2.81393,4.92438 2.81393,9.61426 0,0.85981 0.0782,2.50127 0.0782,1.64146 0.0782,2.42311 0,0.70348 0,1.3288 -0.15633,1.01614 -0.15633,1.48513 -2.42311,-2.50127 -4.68988,-4.37722 -1.40697,-1.17248 -8.75446,-6.40951 -1.25063,3.67374 -2.50127,4.68988 -1.25063,0.93798 -3.90824,0.93798 -2.18861,0 -6.80033,-5.39337 -3.04842,-3.59558 -6.09685,-7.26932 -4.06457,-3.9864 -12.58452,-6.80033 -5.86236,-1.79779 -8.59813,-2.57944 l -3.20475,-0.46899 q 1.25064,0.78165 2.57944,1.64146 1.40696,0.78165 2.57943,1.64146 -8.83261,2.97026 -14.14782,7.19116 -6.48767,5.23704 -6.48767,11.56838 0,5.00254 2.34494,8.91078 2.34494,3.51742 4.76805,7.03483 l 0,5.62786 q 1.87596,-0.78165 3.12659,-1.17247 3.90824,-1.25064 7.81648,-1.64146 l 8.98894,9.92692 q 0.62532,0 1.5633,-4.45539 0.93797,-4.53355 1.64146,-4.53355 3.9864,0 6.95666,1.95412 3.04843,1.95411 3.9864,4.61172 1.64146,-0.78165 2.18862,-1.09431 0.54715,-0.31266 1.64145,-1.25064 -1.25063,-1.3288 -2.34494,-2.03228 -1.0943,-0.70348 -3.43925,-1.71962 1.71963,-1.01615 13.13168,-12.50636 4.61172,-4.61172 8.67629,-6.25318 0.46899,0.54715 0.46899,2.50127 0,1.3288 -0.31266,3.90823 -0.70348,5.7842 -0.70348,7.26933 0,2.26677 0.54715,3.43925 0.54715,1.17247 1.95412,1.17247 0.70348,0 5.86235,-5.78419 5.15888,-5.7842 5.70603,-5.94053 0,0.46899 0.31266,1.17248 0.31266,0.70348 0.31266,1.17247 z"
         style=""
         id="path4770" />
      <path
         d="m 511.90868,-813.4805 q 0,1.01614 -0.0782,1.40696 -0.31266,1.17247 -0.54715,2.34494 -2.81393,-0.31266 -7.42565,-0.31266 -3.67374,0 -8.28546,0.0782 -4.61172,0.15633 -7.42566,0.23449 -4.37722,0 -8.67628,-4.68988 -4.2209,-4.76805 -4.2209,-8.44179 0,-1.25064 1.25064,-3.20476 1.3288,-1.95412 1.3288,-2.89209 -1.48513,-1.64146 -2.6576,-2.8921 -1.17248,-1.3288 -1.17248,-2.26678 0,-0.85981 0.2345,-2.03228 0.31266,-1.17247 0.39082,-1.71963 l -4.45539,0 q -4.76805,1.5633 -10.70857,2.18862 -5.94052,0.62531 -13.05351,0.62531 -3.43925,0 -7.89464,-2.11044 -4.45539,-2.11045 -7.58198,-2.11045 -2.18861,0 -10.00509,0.46899 -2.57944,0.15633 -7.34749,0.46899 0,2.81393 -0.31265,4.06456 -0.54716,2.26678 -2.26678,3.43925 -0.78165,0.54715 -3.59558,1.25064 -4.68989,1.17247 -4.68989,3.90823 0,1.25064 0.78165,4.37723 0.46899,1.87595 0.46899,3.12659 0,2.97026 -1.01614,4.84622 -1.40697,2.6576 -4.76805,2.6576 l -20.55733,0 q -0.85981,0 -1.87595,-0.15633 -1.01615,-0.15633 -1.95412,-0.31266 7.9728,-4.14273 12.50636,-6.64401 4.84621,-2.73576 4.84621,-4.14273 0,-2.34494 -1.3288,-3.20475 -1.25064,-0.93798 -1.25064,-1.95412 0,-1.01614 0.93798,-3.04843 0.93798,-2.03228 0.93798,-3.28292 0,-2.03228 -0.31266,-2.18861 -0.31266,-0.15633 -0.31266,-1.79779 0,-1.01614 1.87595,-1.87595 1.95412,-0.85981 1.95412,-1.87596 l 0,-10.31774 q 0,-2.73577 3.83008,-4.84622 3.20475,-1.56329 6.48767,-3.12659 1.87595,-1.0943 2.03228,-3.7519 0.2345,-2.73577 0.54716,-3.28292 l 5.78419,-3.28292 q 1.79779,-1.48513 2.42311,-3.51742 0.70348,-2.03228 1.40696,-3.04842 2.73577,-3.75191 4.2209,-9.14528 1.48513,-5.39337 2.89209,-10.55224 0.31266,-0.78165 2.34495,-4.61172 1.48513,-2.73577 1.48513,-4.76805 0,-1.01614 -1.32881,-2.34494 -1.25063,-1.40697 -1.25063,-2.34494 0,-1.95412 4.14273,-5.5497 4.2209,-3.67374 4.2209,-6.17502 0,-1.40696 -0.39083,-2.11044 -0.31266,-0.70349 -2.81393,-3.51742 3.51742,-1.71962 7.66015,-2.50127 4.22089,-0.78165 9.06711,-0.78165 3.51741,0 4.76805,0.93798 0.70348,0.54715 2.26678,3.28292 l -3.83008,7.03483 q 2.34495,6.01868 7.50382,12.81902 4.53355,5.94052 10.47408,11.56838 4.14273,3.83007 6.80033,10.31774 1.64146,3.98641 3.59558,12.4282 2.03228,8.44179 3.04842,11.49022 1.40697,4.37722 4.37723,10.00509 2.03228,3.90823 5.86235,10.08325 2.8921,4.76805 5.86236,9.45793 0.78165,1.3288 2.73577,2.34495 2.81393,1.40696 5.62786,2.81393 0.39082,0.31266 3.36108,6.25318 3.04843,5.86235 3.04843,6.40951 z m -65.50206,-100.83253 q 0.23449,-0.62532 -1.25064,-1.87595 -2.11045,-1.64146 -4.14273,-3.28292 -0.70348,0.54715 -2.57944,0.93797 -0.62531,0.15633 -0.62531,2.34495 0,1.71962 2.34494,4.14273 1.48513,1.56329 2.73576,1.56329 1.09431,0 1.87596,-0.78165 0.85981,-0.85981 1.64146,-3.04842 z m 24.77822,63.07895 q -1.0943,-0.78165 -7.26932,-2.57943 -2.73576,-0.78165 -2.97026,-1.17248 -1.3288,-1.95411 -3.59558,-7.50381 -2.18861,-5.62786 -2.18861,-7.50382 0,-0.85981 0.78165,-2.73576 0.46899,-1.09431 0.46899,-1.71963 0,-1.87595 -5.7842,-3.51741 -5.78419,-1.64146 -5.78419,-5.15888 0,-1.56329 2.65761,-7.19115 1.25063,-2.6576 1.25063,-4.76805 0,-2.57944 -1.17247,-6.48768 -1.17247,-3.9864 -2.73577,-5.94052 l -3.20475,0.93798 q 0,0.0782 0.0782,1.48513 0.0782,1.40697 0.0782,2.42311 0,1.48513 -0.15633,2.57943 -0.15633,1.01615 -0.62532,1.48513 -1.87595,1.09431 -2.57944,1.5633 -1.25063,0.85981 -1.25063,3.12659 0,2.57944 -3.90824,7.73831 -1.87595,2.50127 -1.87595,4.45539 0,1.79779 -2.8921,3.67374 -2.89209,1.87596 -2.89209,4.29906 -1.09431,4.14274 -1.5633,6.25318 -1.64146,6.56584 -1.64146,6.8785 0,1.17247 -3.90824,4.92438 -1.87595,1.79779 -1.87595,3.51741 0,0.31266 0.31266,1.71963 0.31266,1.40696 0.31266,2.03228 l 16.02377,0 q 1.01614,0 2.26678,0 1.3288,0 2.81393,-0.0782 6.17501,0 9.69243,0.62532 5.15887,0.93797 5.15887,3.20475 0,0.54715 -0.31266,1.40697 -0.31266,0.85981 -0.31266,1.40696 0,0.31266 3.51742,1.09431 1.17247,0.23449 3.51741,0.78165 1.40697,0 2.57944,-0.39083 1.48513,-0.62532 2.57943,-1.01614 l -1.25063,-1.87595 q -0.62532,-0.0782 -1.64146,-0.2345 -1.01614,-0.15633 -1.25064,-0.15633 -0.15633,0 -0.23449,0 -1.79779,-0.70348 -2.6576,-1.01614 0.39082,-0.78165 0.85981,-1.64146 0.31266,-0.31266 1.71962,-2.11045 2.34495,0.62532 3.28292,0.93798 1.01615,0.23449 2.50128,0.93798 1.71962,-1.3288 2.73576,-2.18862 1.3288,-1.17247 2.34494,-2.50127 z"
         style=""
         id="path4772" />
    </g>
  </g>
</svg>
