<?xml version="1.0" encoding="UTF-8" standalone="no"?>
<!-- Created with Inkscape (http://www.inkscape.org/) -->

<svg
   xmlns:dc="http://purl.org/dc/elements/1.1/"
   xmlns:cc="http://creativecommons.org/ns#"
   xmlns:rdf="http://www.w3.org/1999/02/22-rdf-syntax-ns#"
   xmlns:svg="http://www.w3.org/2000/svg"
   xmlns="http://www.w3.org/2000/svg"
   xmlns:sodipodi="http://sodipodi.sourceforge.net/DTD/sodipodi-0.dtd"
   xmlns:inkscape="http://www.inkscape.org/namespaces/inkscape"
   width="1024"
   height="1024"
   viewBox="0 0 1024 1024"
   id="svg2"
   version="1.1"
   inkscape:version="0.91 r13725"
   sodipodi:docname="prisonvisitor.svg">
  <defs
     id="defs4" />
  <sodipodi:namedview
     id="base"
     pagecolor="#ffffff"
     bordercolor="#666666"
     borderopacity="1.0"
     inkscape:pageopacity="0.0"
     inkscape:pageshadow="2"
     inkscape:zoom="0.46469943"
     inkscape:cx="503.49395"
     inkscape:cy="427.08603"
     inkscape:document-units="px"
     inkscape:current-layer="layer1"
     showgrid="false"
     inkscape:showpageshadow="false"
     borderlayer="true"
     units="px"
     inkscape:window-width="1920"
     inkscape:window-height="1139"
     inkscape:window-x="0"
     inkscape:window-y="37"
     inkscape:window-maximized="1" />
  <metadata
     id="metadata7">
    <rdf:RDF>
      <cc:Work
         rdf:about="">
        <dc:format>image/svg+xml</dc:format>
        <dc:type
           rdf:resource="http://purl.org/dc/dcmitype/StillImage" />
        <dc:title />
      </cc:Work>
    </rdf:RDF>
  </metadata>
  <g
     inkscape:label="Layer 1"
     inkscape:groupmode="layer"
     id="layer1"
     transform="translate(0,-28.362161)">
    <ellipse
       style="fill:#000000;stroke-width:4;stroke-miterlimit:4;stroke-dasharray:none"
       id="path7324"
       cx="553.85956"
       cy="-441.39557"
       rx="72.56768"
       ry="47.552265"
       transform="matrix(0,1,-1,0,0,0)" />
    <ellipse
       ry="46.662952"
       rx="72.56768"
       cy="610.96527"
       cx="-554.021"
       id="ellipse8140"
       style="fill:#000000;stroke-width:4;stroke-miterlimit:4;stroke-dasharray:none"
       transform="matrix(0,-1,1,0,0,0)" />
    <ellipse
       style="fill:#000000;fill-opacity:1;stroke:none;stroke-width:400;stroke-miterlimit:4;stroke-dasharray:none;stroke-opacity:1"
       id="ellipse8152"
       cx="509.66479"
       cy="784.98157"
       rx="12.996488"
       ry="8.6777554" />
    <path
       sodipodi:nodetypes="cc"
       inkscape:connector-curvature="0"
       id="path8156"
       d="m 469.74284,997.9274 c 31.52117,30.272 80.6076,39.7818 103.53207,15.8457"
       style="fill:none;fill-rule:evenodd;stroke:#000000;stroke-width:15.90777016;stroke-linecap:butt;stroke-linejoin:miter;stroke-miterlimit:4;stroke-dasharray:none;stroke-opacity:1" />
    <path
       style="fill:#000000;fill-opacity:1;stroke:none;stroke-width:400;stroke-miterlimit:4;stroke-dasharray:none;stroke-opacity:1"
       d="m 237.57729,552.10658 c 0,-136.9479 55.52634,-408.12321 331.65608,-352.54671 195.78085,39.40472 161.71063,-1.91534 242.87672,268.31803 l 15.12479,50.35629 c 17.00945,56.63106 -46.18422,249.04856 -41.5968,284.35996 C 800.63188,918.008 925.81356,943.9841 938.75449,953.88751 1010.609,1008.8762 927.20704,424.17481 926.31829,408.54434 914.22017,195.77668 869.73077,167.36227 869.73077,167.36227 749.73793,-3.4630487 799.7645,151.29524 721.5677,61.420412 c 0,0 -78.53636,35.872706 -135.00358,-13.47684 -22.58689,-18.031562 -82.88423,22.653094 -130.88136,-1.072636 0,0 -66.41858,23.354303 -100.29891,16.711095 C 315.74579,78.117005 276.44907,5.1972474 263.15212,105.33743 159.54481,56.322104 151.29386,210.24258 150.5606,288.04282 c 0,0 -0.76981,56.51179 -78.498701,125.44118 0,0 2.888546,8.84924 13.742369,15.65282 81.896802,51.33597 205.600212,379.03561 207.797732,416.20978 1.87309,31.68595 8.91828,28.98158 11.81275,8.65801 C 320.8188,745.84479 230.3182,595.44588 237.57729,552.10658 Z"
       id="rect4262"
       inkscape:connector-curvature="0"
       sodipodi:nodetypes="cssssssccccccccsssc" />
    <path
       style="fill:#000000;fill-opacity:1;stroke:none;stroke-width:400;stroke-miterlimit:4;stroke-dasharray:none;stroke-opacity:1"
       d="m 386.47166,424.18892 c 0,0 19.22747,-24.23238 44.12585,-23.06724 0,0 74.0665,-13.3881 58.7015,34.87232 -29.94206,17.70761 -35.46884,-55.35234 -108.73696,10.96185 z"
       id="rect4265"
       inkscape:connector-curvature="0"
       sodipodi:nodetypes="ccccc" />
    <path
       sodipodi:nodetypes="ccccc"
       inkscape:connector-curvature="0"
       id="path4268"
       d="m 659.5887,427.78041 c 0,0 -16.97179,-19.60662 -38.94919,-18.66389 0,0 -65.37736,-10.83243 -51.81491,28.21547 26.4294,14.32737 31.3078,-44.78602 95.98043,8.86933 z"
       style="fill:#000000;fill-opacity:1;stroke:none;stroke-width:400;stroke-miterlimit:4;stroke-dasharray:none;stroke-opacity:1" />
    <path
       id="ellipse5857"
       style="fill:#000000;fill-opacity:1;stroke:none;stroke-width:400;stroke-miterlimit:4;stroke-dasharray:none;stroke-opacity:1"
       sodipodi:type="arc"
       sodipodi:cx="532.39423"
       sodipodi:cy="911.07031"
       sodipodi:rx="77.296059"
       sodipodi:ry="25.692883"
       sodipodi:start="0"
       sodipodi:end="4.0482522"
       d="m 609.69028,911.07031 a 77.296059,25.692883 0 0 1 -60.32376,25.06587 77.296059,25.692883 0 0 1 -86.81497,-14.05819 77.296059,25.692883 0 0 1 22.19896,-31.23952 l 47.64372,20.23184 z" />
    <ellipse
       style="fill:#000000;fill-opacity:1;stroke:none;stroke-width:400;stroke-miterlimit:4;stroke-dasharray:none;stroke-opacity:1"
       id="ellipse7540"
       cx="546.26001"
       cy="784.44818"
       rx="11.474844"
       ry="8.6777554" />
    <ellipse
       transform="matrix(0,1,-1,0,0,0)"
       ry="18.496397"
       rx="34.791355"
       cy="-612.85248"
       cx="579.40332"
       id="ellipse4732"
       style="fill:#ffffff;stroke:none;stroke-width:9.03653431;stroke-miterlimit:4;stroke-dasharray:none;stroke-opacity:1" />
    <ellipse
       style="fill:#ffffff;stroke:none;stroke-width:9.03653431;stroke-miterlimit:4;stroke-dasharray:none;stroke-opacity:1"
       id="ellipse4734"
       cx="583.40332"
       cy="-442.85248"
       rx="34.791355"
       ry="18.496397"
       transform="matrix(0,1,-1,0,0,0)" />
  </g>
</svg>
